<?xml version="1.0" encoding="utf-8"?>
<!-- Generator: Adobe Illustrator 18.1.1, SVG Export Plug-In . SVG Version: 6.00 Build 0)  -->
<!DOCTYPE svg PUBLIC "-//W3C//DTD SVG 1.1//EN" "http://www.w3.org/Graphics/SVG/1.1/DTD/svg11.dtd">
<svg version="1.1" id="Layer_1" xmlns="http://www.w3.org/2000/svg" xmlns:xlink="http://www.w3.org/1999/xlink" x="0px" y="0px"
	 viewBox="9.4 44.1 247.9 22.1" enable-background="new 9.4 44.1 247.9 22.1" xml:space="preserve">
<g>
	<path fill="#FFFFFF" d="M142.2,61.8c-0.2-2.1-2-3.7-4.1-3.7l-1.9-2.3l4.4-5.4l1-1.2c0,0,0.1-0.1,0.1-0.1c0.8-1.6,0.4-3.4-0.8-4.6
		c-0.1-0.1-0.3-0.2-0.5-0.2c-0.2,0-0.4,0.1-0.5,0.3l-4.2,5.1l-2.2,2.7l-0.1,0.1l-0.2-0.2l-2.2-2.7l-4.2-5.1
		c-0.1-0.1-0.3-0.2-0.5-0.3c-0.2,0-0.4,0.1-0.5,0.2c-1.3,1.2-1.6,3.1-0.8,4.6c0,0.1,0.1,0.1,0.1,0.1l5.5,6.7l0,0.1l-1.9,2.3
		l-0.1,0.1c-2.1-0.1-3.9,1.6-4.1,3.7c-0.1,1.1,0.2,2.1,0.9,2.9c0.7,0.8,1.7,1.3,2.7,1.4c0.1,0,0.2,0,0.3,0c2.1,0,3.8-1.6,4-3.7
		c0.1-0.6,0-1.3-0.3-1.8l1.3-1.5l1.2,1.4c-0.2,0.6-0.3,1.2-0.3,1.8c0.2,2.1,1.9,3.7,4,3.7c0,0,0,0,0,0c0.1,0,0.2,0,0.3,0
		c1.1-0.1,2-0.6,2.7-1.4C142,63.9,142.3,62.8,142.2,61.8z M134.5,53.1l2.2-2.7l3.7-4.4c0.4,0.7,0.4,1.6,0.1,2.3l-5.2,6.3l-1-1.2
		L134.5,53.1z M130.9,60l-0.1,0.1c-0.2,0.2-0.2,0.5-0.1,0.8c0.3,0.5,0.4,1,0.3,1.5c-0.1,1.4-1.4,2.5-2.8,2.4
		c-0.7-0.1-1.3-0.4-1.8-0.9c-0.5-0.5-0.7-1.2-0.6-1.9c0.1-1.3,1.3-2.4,2.6-2.4c0.1,0,0.1,0,0.2,0l0,0c0,0,0.1,0,0.1,0
		c0.2,0,0.5-0.1,0.6-0.3l2.1-2.5l1,1.2L130.9,60z M140.2,63.8c-0.5,0.5-1.1,0.9-1.8,0.9c-0.1,0-0.1,0-0.2,0c-1.3,0-2.5-1.1-2.6-2.4
		c0-0.5,0.1-1,0.3-1.5c0.1-0.3,0.1-0.6-0.1-0.8l-1.6-1.9l-0.5-0.5l-0.5-0.5l-1-1.2l-0.5-0.5l-0.3-0.4l-0.1-0.2l-4.3-5.3l-1-1.2
		c-0.3-0.8-0.3-1.6,0.1-2.3l3.7,4.4l2.2,2.7l0.4,0.5l0.5,0.5l0.5,0.5l1,1.2l0.5,0.5l0.5,0.5l1.7,2l0.3,0.4c0.2,0.2,0.4,0.3,0.6,0.3
		c0,0,0.1,0,0.1,0l0,0c1.4-0.1,2.7,1,2.8,2.4C140.9,62.6,140.7,63.2,140.2,63.8z"/>
	<path fill="#FFFFFF" d="M128.3,60.3c-1.1,0-1.9,0.9-1.9,1.9c0,1.1,0.9,1.9,1.9,1.9c1.1,0,1.9-0.9,1.9-1.9
		C130.3,61.1,129.4,60.3,128.3,60.3z M128.3,62.9c-0.4,0-0.7-0.3-0.7-0.7c0-0.4,0.3-0.7,0.7-0.7c0.4,0,0.7,0.3,0.7,0.7
		C129,62.6,128.7,62.9,128.3,62.9z"/>
	<path fill="#FFFFFF" d="M138.2,60.1c-1.1,0-1.9,0.9-1.9,1.9c0,1.1,0.9,1.9,1.9,1.9c1.1,0,1.9-0.9,1.9-1.9
		C140.2,61,139.3,60.1,138.2,60.1z M138.2,62.8c-0.4,0-0.7-0.3-0.7-0.7c0-0.4,0.3-0.7,0.7-0.7c0.4,0,0.7,0.3,0.7,0.7
		C138.9,62.5,138.6,62.8,138.2,62.8z"/>
	<circle fill="#FFFFFF" cx="133.3" cy="55.8" r="0.6"/>
</g>
<rect x="157.2" y="54.2" fill="#FFFFFF" width="100" height="2"/>
<rect x="9.4" y="54.2" fill="#FFFFFF" width="100" height="2"/>
</svg>
