<svg version="1.1" id="badge" xmlns="http://www.w3.org/2000/svg" xmlns:xlink="http://www.w3.org/1999/xlink" x="0px" y="0px"
	 width="500px" height="500px" viewBox="0 0 179.667 178" enable-background="new 0 0 179.667 178" xml:space="preserve">
<g id="icon">
	
		<polyline id="mod" fill="none" stroke="#F4CD7D" stroke-width="3.5" stroke-linecap="round" stroke-linejoin="round" stroke-miterlimit="10" points="
		71.667,82.872 71.667,43.038 107,43.038 107,65.372 	"/>
	
		<path id="cloud-top-left" fill="none" stroke="#F4CD7D" stroke-width="3.5" stroke-linecap="round" stroke-linejoin="round" stroke-miterlimit="10" d="
		M56.661,77.507c0-8.026,6.508-14.533,14.533-14.533"/>
	
		<path id="cloud-main" fill="none" stroke="#F4CD7D" stroke-width="3.5" stroke-linecap="round" stroke-linejoin="round" stroke-miterlimit="10" d="
		M77.665,98.592c0-11.306-9.164-20.469-20.471-20.469c-11.303,0-20.467,9.163-20.467,20.469c0,11.305,9.164,20.469,20.467,20.469
		h58.775c14.711,0,26.637-11.924,26.637-26.636c0-14.71-11.926-26.635-26.637-26.635c-7.424,0-14.141,3.039-18.971,7.939"/>
	
		<line id="vertical-left" fill="none" stroke="#F4CD7D" stroke-width="3.5" stroke-linecap="round" stroke-linejoin="round" stroke-miterlimit="10" x1="79.477" y1="52.205" x2="79.477" y2="77.586"/>
	
		<line id="vertical-right" fill="none" stroke="#F4CD7D" stroke-width="3.5" stroke-linecap="round" stroke-linejoin="round" stroke-miterlimit="10" x1="87.352" y1="52.205" x2="87.352" y2="86.872"/>
	
		<rect id="atty" x="79.477" y="35.164" fill="none" stroke="#F4CD7D" stroke-width="3.5" stroke-linecap="round" stroke-linejoin="round" stroke-miterlimit="10" width="7.875" height="7.875"/>
	
		<path id="cloud-bottom-left" fill="none" stroke="#F4CD7D" stroke-width="3.5" stroke-linecap="round" stroke-linejoin="round" stroke-miterlimit="10" d="
		M69.284,103.039c0,0,3-3.668,8.332-3.668c5.334,0,8.668,3.668,8.668,3.668"/>
	
		<path id="cloud-bottom" fill="none" stroke="#F4CD7D" stroke-width="3.5" stroke-linecap="round" stroke-linejoin="round" stroke-miterlimit="10" d="
		M113.01,103.758c0,8.451-6.85,15.303-15.303,15.303"/>
	
		<path id="cloud-right" fill="none" stroke="#F4CD7D" stroke-width="3.5" stroke-linecap="round" stroke-linejoin="round" stroke-miterlimit="10" d="
		M114.35,76.748c4.434,0,8.865,1.69,12.248,5.073c3.381,3.381,5.072,7.813,5.072,12.246"/>
	
		<path id="cloud-top-right" fill="none" stroke="#F4CD7D" stroke-width="3.5" stroke-linecap="round" stroke-linejoin="round" stroke-miterlimit="10" d="
		M108.014,52.923c7.078,0,12.814,5.738,12.814,12.815"/>
</g>
<g id="vapecity" class="animated fadeIn">
	<g id="v">
		<path fill="#FFFEDF" d="M46.757,12.27c-0.219,0-0.443,0.06-0.648,0.183c-0.506,0.306-0.677,0.858-0.607,1.284l1.367,7.736
			l-6.146-4.755c-0.241-0.186-0.522-0.298-0.822-0.298c-0.224,0-0.458,0.063-0.693,0.205c-0.588,0.356-0.781,1.089-0.425,1.678
			c0.108,0.177,0.262,0.309,0.43,0.432l7.602,5.557c0.301,0.219,0.619,0.338,0.942,0.338c0.25,0,0.503-0.071,0.754-0.223
			l0.137-0.083c0.575-0.348,0.782-0.902,0.687-1.555l-1.399-9.398c-0.02-0.157-0.073-0.368-0.172-0.532
			C47.539,12.466,47.155,12.27,46.757,12.27L46.757,12.27z"/>
	</g>
	<g id="a_1_">
		<path fill="#FFFEDF" d="M56.551,7.729c-0.186,0-0.378,0.038-0.575,0.116l-0.133,0.053c-0.625,0.249-0.949,0.774-0.977,1.439
			l-0.367,9.634c-0.009,0.193-0.004,0.38,0.062,0.543c0.181,0.455,0.604,0.732,1.058,0.732c0.14,0,0.283-0.026,0.423-0.082
			c0.476-0.189,0.756-0.611,0.771-1.133l0.048-2l4.578-1.822l1.35,1.357c0.28,0.276,0.601,0.443,0.953,0.443
			c0.148,0,0.302-0.03,0.461-0.093c0.609-0.243,0.889-0.922,0.647-1.532c-0.059-0.148-0.163-0.279-0.302-0.414L57.66,8.224
			C57.333,7.906,56.957,7.729,56.551,7.729L56.551,7.729z M56.903,14.672l0.075-4.007l2.809,2.859L56.903,14.672L56.903,14.672z"/>
	</g>
	<g id="p">
		<path fill="#FFFEDF" d="M72.233,3.395c-0.385,0-0.792,0.043-1.216,0.134l-3.271,0.695c-0.673,0.143-1.092,0.788-0.95,1.461
			l1.836,8.642c0.125,0.584,0.627,0.978,1.198,0.978c0.087,0,0.175-0.009,0.264-0.028c0.673-0.143,1.092-0.789,0.949-1.461
			l-0.462-2.176l1.832-0.389c2.458-0.522,4.151-2.256,3.612-4.792l-0.007-0.032C75.619,4.551,74.215,3.395,72.233,3.395
			L72.233,3.395z M70.125,9.494l-0.712-3.35l1.863-0.396c0.229-0.048,0.446-0.073,0.649-0.073c0.866,0,1.475,0.441,1.661,1.316
			l0.006,0.031c0.199,0.939-0.352,1.809-1.558,2.065L70.125,9.494L70.125,9.494z"/>
	</g>
	<g id="e_1_">
		<path fill="#FFFEDF" d="M88.289,1.604c-0.018,0-0.037,0-0.055,0.001L82.03,1.913c-0.688,0.034-1.204,0.604-1.17,1.292l0.434,8.729
			c0.033,0.666,0.569,1.171,1.228,1.171c0.021,0,0.043,0,0.064-0.001l6.283-0.312c0.607-0.03,1.079-0.535,1.049-1.142
			c-0.029-0.589-0.519-1.049-1.103-1.049c-0.019,0-0.037,0-0.056,0.001l-5.068,0.251l-0.117-2.35l4.269-0.212
			c0.607-0.03,1.08-0.535,1.049-1.143C88.864,6.561,88.374,6.1,87.791,6.1c-0.018,0-0.037,0-0.055,0.001l-4.269,0.212l-0.112-2.27
			l4.988-0.248c0.607-0.03,1.079-0.534,1.049-1.142C89.362,2.064,88.872,1.604,88.289,1.604L88.289,1.604z"/>
	</g>
	<g id="c">
		<path fill="#FFFEDF" d="M99.721,2.111c-3.056,0-5.378,2.205-5.713,5.134l-0.003,0.032c-0.365,3.194,1.777,6,5.052,6.374
			c0.315,0.036,0.613,0.053,0.896,0.053c1.317,0,2.315-0.375,3.221-1c0.245-0.165,0.47-0.446,0.514-0.827
			c0.07-0.62-0.396-1.188-1.017-1.259c-0.042-0.005-0.084-0.007-0.126-0.007c-0.237,0-0.458,0.077-0.636,0.194
			c-0.633,0.396-1.236,0.628-2.015,0.628c-0.159,0-0.325-0.01-0.501-0.03c-1.906-0.218-3.044-1.958-2.826-3.865l0.003-0.032
			c0.203-1.778,1.546-3.118,3.246-3.118c0.124,0,0.249,0.007,0.376,0.021c0.874,0.1,1.558,0.468,2.183,1.055
			c0.162,0.131,0.37,0.284,0.704,0.322c0.048,0.005,0.096,0.008,0.144,0.008c0.607,0,1.13-0.443,1.2-1.062
			c0.049-0.429-0.134-0.805-0.366-1.024c-0.844-0.789-1.922-1.363-3.591-1.553C100.213,2.125,99.965,2.111,99.721,2.111
			L99.721,2.111z"/>
	</g>
	<g id="i_1_">
		<path fill="#FFFEDF" d="M111.304,4.299c-0.551,0-1.043,0.368-1.186,0.931l-2.188,8.653c-0.169,0.667,0.225,1.328,0.892,1.496
			c0.104,0.026,0.208,0.039,0.311,0.039c0.551,0,1.043-0.369,1.186-0.931l2.189-8.653c0.168-0.667-0.226-1.328-0.893-1.496
			C111.51,4.312,111.407,4.299,111.304,4.299L111.304,4.299z"/>
	</g>
	<g id="t_3_">
		<path fill="#FFFEDF" d="M118.473,6.452c-0.455,0-0.888,0.274-1.062,0.722c-0.228,0.581,0.062,1.245,0.645,1.472l2.206,0.863
			l-2.841,7.259c-0.251,0.641,0.058,1.346,0.698,1.597c0.151,0.059,0.306,0.087,0.457,0.087c0.491,0,0.949-0.296,1.141-0.786
			l2.84-7.259l2.207,0.863c0.135,0.053,0.273,0.078,0.41,0.078c0.454,0,0.887-0.275,1.062-0.722
			c0.227-0.581-0.063-1.245-0.645-1.472l-6.708-2.625C118.749,6.476,118.61,6.452,118.473,6.452L118.473,6.452z"/>
	</g>
	<g id="y">
		<path fill="#FFFEDF" d="M131.593,12.098c-0.406,0-0.794,0.202-1.012,0.568c-0.181,0.303-0.218,0.615-0.19,0.912l0.592,6.07
			l-1.629,2.734c-0.353,0.59-0.163,1.336,0.428,1.688c0.201,0.12,0.42,0.177,0.636,0.177c0.417,0,0.82-0.215,1.053-0.605
			l1.654-2.776l5.604-2.34c0.251-0.111,0.545-0.29,0.717-0.578c0.344-0.578,0.229-1.26-0.417-1.645
			c-0.201-0.12-0.406-0.172-0.618-0.172c-0.251,0-0.509,0.074-0.775,0.199l-4.399,1.978l-0.33-4.759
			c-0.031-0.54-0.179-0.981-0.66-1.268C132.038,12.157,131.813,12.098,131.593,12.098L131.593,12.098z"/>
	</g>
</g>
<g id="austin" class="animated fadeIn">
	<g id="a">
		<path fill="#FFFEDF" d="M48.314,154.994c-0.291,0-0.577,0.103-0.844,0.293l-6.841,4.935c-0.138,0.098-0.264,0.203-0.342,0.336
			c-0.283,0.483-0.134,1.089,0.349,1.371c0.171,0.101,0.354,0.149,0.536,0.149c0.228,0,0.456-0.077,0.661-0.228l1.405-1.044
			l3.722,2.177l-0.209,1.661c-0.057,0.485,0.084,0.909,0.52,1.163c0.164,0.096,0.34,0.141,0.514,0.141
			c0.354,0,0.697-0.188,0.891-0.52c0.07-0.12,0.105-0.263,0.122-0.431l0.944-8.383c0.063-0.579-0.137-1.069-0.645-1.366
			l-0.108-0.063C48.767,155.056,48.54,154.994,48.314,154.994L48.314,154.994z M47.692,157.46l-0.459,3.477l-2.345-1.37
			L47.692,157.46L47.692,157.46z"/>
	</g>
	<g id="u">
		<path fill="#FFFEDF" d="M56.906,159.507c-0.43,0-0.83,0.259-0.997,0.688l-1.677,4.287c-1.05,2.685-0.086,4.639,2.364,5.597
			c0.671,0.263,1.314,0.396,1.917,0.396c1.597,0,2.909-0.944,3.694-2.949l1.651-4.223c0.219-0.561-0.051-1.177-0.611-1.396
			c-0.132-0.052-0.267-0.076-0.399-0.076c-0.429,0-0.829,0.259-0.997,0.688l-1.682,4.3c-0.421,1.078-1.103,1.604-1.929,1.604
			c-0.283,0-0.583-0.062-0.895-0.184c-1.225-0.479-1.667-1.539-1.086-3.024l1.656-4.235c0.219-0.56-0.05-1.176-0.611-1.396
			C57.173,159.531,57.039,159.507,56.906,159.507L56.906,159.507z"/>
	</g>
	<g id="s_1_">
		<path fill="#FFFEDF" d="M70.724,164.089c-1.495,0-2.669,0.817-2.99,2.245l-0.006,0.027c-0.426,1.898,0.697,2.71,2.512,3.634
			c1.506,0.769,1.772,1.115,1.653,1.647l-0.006,0.027c-0.096,0.428-0.465,0.66-1.018,0.66c-0.171,0-0.36-0.022-0.564-0.068
			c-0.929-0.208-1.647-0.714-2.251-1.409c-0.115-0.126-0.285-0.265-0.558-0.326c-0.078-0.018-0.155-0.026-0.231-0.026
			c-0.458,0-0.865,0.307-0.97,0.775c-0.074,0.327,0.023,0.665,0.218,0.881c0.893,1.004,2.078,1.672,3.334,1.954
			c0.398,0.09,0.782,0.134,1.146,0.134c1.521,0,2.686-0.777,3.029-2.31l0.006-0.027c0.375-1.666-0.562-2.607-2.388-3.549
			c-1.557-0.794-1.921-1.091-1.78-1.719l0.006-0.027c0.082-0.366,0.414-0.614,0.945-0.614c0.143,0,0.3,0.019,0.471,0.057
			c0.655,0.147,1.259,0.526,1.863,1.093c0.143,0.133,0.294,0.224,0.499,0.27c0.078,0.018,0.155,0.026,0.231,0.026
			c0.458,0,0.864-0.307,0.969-0.774c0.092-0.41-0.076-0.749-0.277-0.938c-0.738-0.739-1.681-1.268-2.842-1.527
			C71.381,164.126,71.045,164.089,70.724,164.089L70.724,164.089z"/>
	</g>
	<g id="t_1_">
		<path fill="#FFFEDF" d="M79.776,165.819c-0.51,0-0.948,0.396-0.99,0.912c-0.044,0.544,0.365,1.026,0.909,1.071l2.064,0.17
			l-0.558,6.791c-0.049,0.601,0.386,1.113,0.986,1.162c0.031,0.003,0.062,0.004,0.093,0.004c0.559,0,1.022-0.421,1.069-0.989
			l0.557-6.792l2.064,0.169c0.027,0.002,0.055,0.003,0.082,0.003c0.51,0,0.948-0.395,0.99-0.911
			c0.044-0.544-0.365-1.027-0.909-1.072l-6.276-0.515C79.831,165.82,79.803,165.819,79.776,165.819L79.776,165.819z"/>
	</g>
	<g id="i">
		<path fill="#FFFEDF" d="M92.17,166.224c-0.012,0-0.023,0.001-0.035,0.001c-0.602,0.019-1.062,0.509-1.044,1.11l0.238,7.808
			c0.019,0.59,0.49,1.045,1.075,1.045c0.012,0,0.023-0.001,0.035-0.001c0.602-0.018,1.062-0.508,1.044-1.109l-0.238-7.809
			C93.227,166.679,92.755,166.224,92.17,166.224L92.17,166.224z"/>
	</g>
	<g id="n">
		<path fill="#FFFEDF" d="M105.807,164.731c-0.056,0-0.111,0.005-0.168,0.014c-0.581,0.093-0.976,0.637-0.884,1.218l0.793,4.99
			l-4.963-4.738c-0.297-0.277-0.589-0.465-0.983-0.465c-0.07,0-0.144,0.006-0.221,0.019l-0.222,0.035
			c-0.595,0.094-0.989,0.639-0.896,1.233l1.225,7.7c0.083,0.524,0.535,0.897,1.049,0.897c0.056,0,0.111-0.005,0.168-0.014
			c0.581-0.093,0.977-0.637,0.884-1.218l-0.823-5.185l5.146,4.909c0.297,0.278,0.59,0.464,0.984,0.464
			c0.07,0,0.143-0.006,0.22-0.018l0.069-0.012c0.595-0.094,0.99-0.639,0.896-1.233l-1.224-7.7
			C106.773,165.104,106.321,164.731,105.807,164.731L105.807,164.731z"/>
	</g>
	<g id="dot">
		<path fill="#FFFEDF" d="M114.772,170.249c-0.121,0-0.245,0.018-0.371,0.055c-0.672,0.195-1.024,0.838-0.836,1.483l0.008,0.027
			c0.152,0.524,0.605,0.855,1.132,0.855c0.12,0,0.245-0.018,0.371-0.055c0.672-0.195,1.024-0.838,0.836-1.483l-0.008-0.027
			C115.75,170.58,115.297,170.249,114.772,170.249L114.772,170.249z"/>
	</g>
	<g id="t_2_">
		<path fill="#FFFEDF" d="M123.182,159.241c-0.123,0-0.248,0.022-0.369,0.071l-5.843,2.362c-0.507,0.205-0.754,0.788-0.55,1.295
			c0.156,0.385,0.532,0.621,0.926,0.621c0.123,0,0.248-0.023,0.369-0.072l1.922-0.776l2.557,6.323
			c0.171,0.423,0.568,0.677,0.993,0.677c0.136,0,0.274-0.026,0.41-0.081c0.559-0.226,0.822-0.846,0.596-1.403l-2.556-6.324
			l1.922-0.777c0.506-0.204,0.754-0.788,0.549-1.294C123.953,159.477,123.577,159.241,123.182,159.241L123.182,159.241z"/>
	</g>
	<g id="x">
		<path fill="#FFFEDF" d="M133.749,153.426c-0.178,0-0.352,0.047-0.498,0.133c-0.41,0.241-0.545,0.564-0.606,1.039l-0.416,3.492
			l-3.294-1.376c-0.198-0.081-0.375-0.128-0.552-0.128c-0.186,0-0.37,0.053-0.575,0.173c-0.531,0.312-0.683,0.938-0.378,1.456
			c0.156,0.266,0.431,0.43,0.683,0.525l3.688,1.356l-0.635,4.141c-0.046,0.336-0.016,0.61,0.141,0.875
			c0.201,0.342,0.532,0.493,0.852,0.493c0.177,0,0.351-0.047,0.497-0.133c0.411-0.241,0.546-0.563,0.607-1.039l0.458-3.696
			l3.505,1.432c0.198,0.081,0.376,0.128,0.552,0.128c0.186,0,0.37-0.053,0.575-0.173c0.531-0.312,0.683-0.938,0.378-1.457
			c-0.156-0.265-0.431-0.429-0.682-0.524l-3.908-1.454l0.602-3.895c0.046-0.335,0.015-0.609-0.142-0.875
			C134.399,153.577,134.068,153.426,133.749,153.426L133.749,153.426z"/>
	</g>
</g>
<g id="estd" class="animated fadeIn">
	<g id="e">
		<path fill="#FFFEDF" d="M8.312,80.035H3.659c-0.516,0-0.924,0.408-0.924,0.924v6.548c0,0.516,0.408,0.924,0.924,0.924h4.713
			c0.456,0,0.827-0.359,0.827-0.815s-0.372-0.828-0.827-0.828H4.57v-1.763h3.202c0.456,0,0.828-0.359,0.828-0.815
			s-0.372-0.827-0.828-0.827H4.57v-1.703h3.742c0.456,0,0.828-0.36,0.828-0.815C9.14,80.407,8.768,80.035,8.312,80.035L8.312,80.035
			z"/>
	</g>
	<g id="s">
		<path fill="#FFFEDF" d="M14.738,79.915c-1.715,0-2.938,1.008-2.938,2.531v0.023c0,1.667,1.091,2.135,2.783,2.566
			c1.403,0.36,1.691,0.6,1.691,1.067v0.024c0,0.492-0.456,0.792-1.211,0.792c-0.815,0-1.511-0.288-2.147-0.756
			c-0.12-0.084-0.288-0.168-0.527-0.168c-0.48,0-0.864,0.372-0.864,0.852c0,0.288,0.144,0.552,0.348,0.695
			c0.936,0.672,2.051,1.008,3.154,1.008c1.811,0,3.083-0.936,3.083-2.603v-0.024c0-1.463-0.959-2.074-2.663-2.519
			c-1.451-0.372-1.811-0.552-1.811-1.104v-0.023c0-0.408,0.372-0.731,1.08-0.731c0.576,0,1.151,0.203,1.763,0.563
			c0.144,0.084,0.288,0.132,0.468,0.132c0.48,0,0.864-0.372,0.864-0.852c0-0.36-0.204-0.611-0.408-0.731
			C16.645,80.18,15.758,79.915,14.738,79.915L14.738,79.915z"/>
	</g>
	<g id="t">
		<path fill="#FFFEDF" d="M7.645,93.035H2.248c-0.468,0-0.852,0.384-0.852,0.852s0.384,0.852,0.852,0.852h1.775v5.841
			c0,0.516,0.408,0.924,0.923,0.924s0.924-0.408,0.924-0.924v-5.841h1.775c0.468,0,0.852-0.384,0.852-0.852
			S8.113,93.035,7.645,93.035L7.645,93.035z"/>
	</g>
	<g id="d">
		<path fill="#FFFEDF" d="M14.276,93.035h-2.351c-0.516,0-0.924,0.408-0.924,0.924v6.548c0,0.516,0.408,0.924,0.924,0.924h2.351
			c2.639,0,4.461-1.835,4.461-4.197v-0.024C18.738,94.847,16.915,93.035,14.276,93.035L14.276,93.035z M12.849,99.764v-5.062h1.427
			c1.511,0,2.531,1.044,2.531,2.531v0.023c0,1.487-1.02,2.507-2.531,2.507H12.849L12.849,99.764z"/>
	</g>
</g>
<g id="_x32_012" class="animated fadeIn">
	<g id="_x32__1_">
		<path fill="#FFFEDF" d="M164.657,79.915c-1.271,0-2.062,0.456-2.734,1.235c-0.132,0.156-0.216,0.372-0.216,0.576
			c0,0.468,0.372,0.839,0.839,0.839c0.289,0,0.504-0.132,0.625-0.264c0.467-0.504,0.839-0.731,1.367-0.731
			c0.659,0,1.127,0.384,1.127,1.092c0,0.695-0.408,1.163-1.451,2.015l-2.387,1.955c-0.312,0.252-0.48,0.563-0.48,0.923
			c0,0.552,0.42,0.876,0.996,0.876h4.558c0.443,0,0.804-0.348,0.804-0.792c0-0.443-0.36-0.803-0.804-0.803h-2.927l1.367-1.056
			c1.487-1.151,2.207-1.847,2.207-3.25v-0.024C167.547,80.935,166.396,79.915,164.657,79.915L164.657,79.915z"/>
	</g>
	<g id="_x30_">
		<path fill="#FFFEDF" d="M173.903,79.892c-2.231,0-3.742,1.906-3.742,4.342v0.023c0,2.435,1.475,4.317,3.718,4.317
			s3.741-1.906,3.741-4.341v-0.024C177.62,81.774,176.122,79.892,173.903,79.892L173.903,79.892z M173.903,86.907
			c-1.115,0-1.848-1.139-1.848-2.674v-0.024c0-1.535,0.72-2.65,1.823-2.65s1.847,1.151,1.847,2.675v0.023
			C175.725,85.78,175.018,86.907,173.903,86.907L173.903,86.907z"/>
	</g>
	<g id="_x31_">
		<path fill="#FFFEDF" d="M165.157,92.915h-0.023c-0.252,0-0.516,0.061-0.863,0.156l-1.188,0.348
			c-0.372,0.108-0.611,0.42-0.611,0.792c0,0.432,0.371,0.791,0.803,0.791c0.096,0,0.229-0.023,0.324-0.048l0.647-0.168v5.805
			c0,0.504,0.407,0.912,0.911,0.912s0.912-0.408,0.912-0.912v-6.764C166.069,93.323,165.661,92.915,165.157,92.915L165.157,92.915z"
			/>
	</g>
	<g id="_x32_">
		<path fill="#FFFEDF" d="M173.342,92.915c-1.271,0-2.062,0.456-2.734,1.235c-0.131,0.156-0.215,0.372-0.215,0.576
			c0,0.468,0.371,0.839,0.839,0.839c0.288,0,0.504-0.132,0.624-0.264c0.468-0.504,0.84-0.731,1.367-0.731
			c0.66,0,1.127,0.384,1.127,1.092c0,0.695-0.407,1.163-1.451,2.015l-2.387,1.955c-0.312,0.252-0.479,0.563-0.479,0.923
			c0,0.552,0.42,0.876,0.995,0.876h4.559c0.443,0,0.803-0.348,0.803-0.792c0-0.443-0.359-0.803-0.803-0.803h-2.928l1.368-1.056
			c1.487-1.151,2.206-1.847,2.206-3.25v-0.024C176.233,93.935,175.083,92.915,173.342,92.915L173.342,92.915z"/>
	</g>
</g>
<path id="circle-bot-left" fill="none" stroke="#666C70" stroke-width="4" stroke-linecap="round" stroke-miterlimit="10" d="
	M12.393,121.136c4.219,10.189,10.399,19.362,18.077,27.041"/>
<path id="circle-bot-right" fill="none" stroke="#666C70" stroke-width="4" stroke-linecap="round" stroke-miterlimit="10" d="
	M148.196,148.177c7.658-7.658,13.826-16.804,18.047-26.96"/>
<path id="circle-top-right" fill="none" stroke="#666C70" stroke-width="4" stroke-linecap="round" stroke-miterlimit="10" d="
	M166.274,57.49c-4.219-10.19-10.4-19.363-18.078-27.041"/>
<path id="circle-top-left" fill="none" stroke="#666C70" stroke-width="4" stroke-linecap="round" stroke-miterlimit="10" d="
	M30.469,30.449c-7.657,7.657-13.826,16.803-18.045,26.96"/>
<polygon id="bolt" fill="none" stroke="#666C70" stroke-width="2" stroke-linecap="round" stroke-linejoin="round" stroke-miterlimit="10" points="
	86.229,134.614 82.729,144.489 88.604,144.489 88.604,151.74 96.604,139.989 90.604,139.989 92.979,134.614 "/> 
<polygon id="bolt-alt" class="animated fadeIn" fill="none" stroke="#F4CD7D" stroke-width="2" stroke-linecap="round" stroke-linejoin="round" stroke-miterlimit="10" points="
	86.229,134.614 82.729,144.489 88.604,144.489 88.604,151.74 96.604,139.989 90.604,139.989 92.979,134.614 "/>
</svg>